<svg id="Layer_1" data-name="Layer 1" xmlns="http://www.w3.org/2000/svg" viewBox="0 0 129 129"><defs><style>.cls-1{fill:#fefcfc;}.cls-2{fill:#fe6d7a;}.cls-3{fill:#fe8b94;}.cls-4{fill:#fd6d79;}.cls-5{fill:#010101;}</style></defs><title>logo</title><path d="M74.68,0c1.73,1.21,1.9,2,.83,3.88a22.21,22.21,0,0,0-2.92,7.67c-.54,3.91.94,6.72,4.55,8.29,3.21,1.4,6.66,1.87,10.06,2.54,6.09,1.2,12.09,2.67,17.44,6,8,5,13.18,12.2,16.64,20.79a58.71,58.71,0,0,1-19.92,69.92,51.45,51.45,0,0,1-26.73,9.4,63.42,63.42,0,0,1-23.34-2.31A39.46,39.46,0,0,1,37,118.53a39.66,39.66,0,0,0-5.48-4.18c-4.41-2.63-8.18-2.16-11.79,1.48a20.89,20.89,0,0,0-2.4,2.9c-1.07,1.56-2.15,2-3.3,1.31s-1.33-1.86-.42-3.61a2,2,0,0,1,.17-.6c3.2-4.41,7-7.82,12.87-7.78a14.91,14.91,0,0,1,7.74,2.66,44.69,44.69,0,0,1,5.48,4.2,38.23,38.23,0,0,0,19.33,8.41,60.29,60.29,0,0,0,11.38.79c10.36-.32,20-2.81,28.51-9.06a54.12,54.12,0,0,0,15.15-17.2,51.7,51.7,0,0,0,6.15-18,54.92,54.92,0,0,0-4-30.44,38.52,38.52,0,0,0-11-14.9,35.37,35.37,0,0,0-15-6.74c-3-.66-6-1.21-9-1.85a23.23,23.23,0,0,1-9.05-3.58,10.57,10.57,0,0,1-4.18-6.63c-.15-.74-.29-1.48-.37-2.23a20.12,20.12,0,0,1,1.06-6.3,37.7,37.7,0,0,1,2.3-5c.6-.89,1-2,2.26-2.2Z"/><path d="M58.09,27.93c-1.87,0-2.39-.37-2.83-2.13-2-7.85-.39-15.17,3.3-22.16A10.23,10.23,0,0,1,61.11,0h1.5a2.23,2.23,0,0,1,1.75,2.16,4.1,4.1,0,0,1-.78,2A30.37,30.37,0,0,0,59,18.57a22.14,22.14,0,0,0,.74,6.21,2.82,2.82,0,0,1-.26,2.29C59.15,27.57,58.8,28,58.09,27.93Z"/><path class="cls-1" d="M64.1,2.07a3.24,3.24,0,0,0-1.49-2H73.42c-1,.46-1.42,1.48-2,2.32a1.37,1.37,0,0,1-.89.15,43.62,43.62,0,0,0-4.85-.1A2.39,2.39,0,0,1,64.1,2.07Z"/><path class="cls-2" d="M68.13,13.6c.51,6,4,9.39,9.57,11,4.25,1.27,8.64,2,13,2.86,13.27,2.77,21.78,11,26.66,23.28,8.24,20.69,4,44-12.63,60A46.49,46.49,0,0,1,76.26,124c-8.73.85-17.3.4-25.63-2.55a34.82,34.82,0,0,1-11-6.36,36.26,36.26,0,0,0-7.1-5.13,12.56,12.56,0,0,0-14.79,1.88,35.43,35.43,0,0,0-4.08,4.58l-2.82-3.27c-.08-.43.26-.51.53-.54a3.52,3.52,0,0,0,2.23-1.48,26,26,0,0,1,14.86-9,29.25,29.25,0,0,1,9.61.2,85.22,85.22,0,0,0,9.71,1.18,25.64,25.64,0,0,0,13.09-3.35,41,41,0,0,0,9.54-7.51,4.36,4.36,0,0,0,.85-1.23,40.34,40.34,0,0,0,7-10,44.82,44.82,0,0,0,2-4.88c.15-.42.15-.92.6-1.19a32.93,32.93,0,0,0,2.28-8.94,30.23,30.23,0,0,0-2.62-17.27,72.82,72.82,0,0,0-5.33-8.95,66.44,66.44,0,0,1-5.7-9.89,29.68,29.68,0,0,1-1.91-15.64C67.59,14.27,67.46,13.7,68.13,13.6Z"/><path class="cls-3" d="M68.13,13.6a4.81,4.81,0,0,0-.44,2.29A30.23,30.23,0,0,0,72.11,34.8c2.55,4.11,5.42,8,7.72,12.29a31.88,31.88,0,0,1,3.68,11.48,37.49,37.49,0,0,1-2.28,16.92,1.89,1.89,0,0,1-.09.21L81,75.44c-.24-.23-.18-.53-.19-.82a1.91,1.91,0,0,0-1.57-2.08c-.91-.12-1.57.36-2,1.52-.32.86-.6,1.73-.91,2.6a35.73,35.73,0,0,1-6.61,11.12,4.13,4.13,0,0,0-.67.9,1.7,1.7,0,0,0,1.24,2.49c.4.08.85,0,1.17.35-.33,1.54-1.66,2.31-2.68,3.25a38.91,38.91,0,0,1-9.38,6.57,25.82,25.82,0,0,1-15,2.28c-3.83-.53-7.64-1.23-11.48-1.46A19.47,19.47,0,0,0,23.58,104a26.47,26.47,0,0,0-10.23,8c-.68.88-1.73.67-2.53,1.13l-4.24-4.59a23.44,23.44,0,0,1,2.58-5.39,26.25,26.25,0,0,1,5.93-7.09,18.29,18.29,0,0,1,15.74-4,57,57,0,0,0,8.45,1.13c6.61.2,12.3-2.23,17.28-6.35A43,43,0,0,0,71.27,63a28.64,28.64,0,0,0-3.19-21.79c-.53-.9-1.09-1.79-1.62-2.69a2.49,2.49,0,0,0-2.86-1.51.58.58,0,0,1-.47-.13,50.21,50.21,0,0,1-5-9c1.5-1,1.7-1.47,1.28-3.23-1.72-7.28,0-13.95,3.65-20.26A6.63,6.63,0,0,0,64.1,2.07c2.2.13,4.41-.2,6.61.18-1.07.73-2.26.24-3.39.37A5.75,5.75,0,0,1,66,2.56a5.29,5.29,0,0,1,3.23,4.53A25.28,25.28,0,0,0,68.13,13.6Z"/><path d="M63.13,36.92a2.13,2.13,0,0,1,3,.59c3,4.36,5.35,9,6.06,14.29a34.25,34.25,0,0,1-2.53,17.55A43.22,43.22,0,0,1,56.07,87.66,26.07,26.07,0,0,1,33.9,92.94c-3.57-.71-7.17-1.38-10.83-.52-5.72,1.34-9.72,5-12.87,9.73A32.76,32.76,0,0,0,7.56,107a6,6,0,0,1-1,1.59,2.22,2.22,0,0,1-2.87-.3,2.3,2.3,0,0,1-.2-2.79A33.71,33.71,0,0,1,13,92.69,21.84,21.84,0,0,1,31.1,88.12a71,71,0,0,0,7.7,1.09c6,.38,11.08-1.86,15.5-5.64A38.39,38.39,0,0,0,68.06,58.18,23.86,23.86,0,0,0,64.49,43c-.53-.9-1.09-1.78-1.64-2.67C62,38.91,62.05,38.17,63.13,36.92Z"/><path class="cls-4" d="M69.22,7.09c-.69-1.54-1.29-3.14-2.91-4-.38-.21-.91-.19-1.27-.8h5.67l.68.09Z"/><path d="M71.42,91.52c-1.1.17-2.11.07-2.7-1s-.12-2,.63-2.83A35.29,35.29,0,0,0,76.89,73.9a2.14,2.14,0,0,1,4.2,0c.13.53-.16,1-.13,1.49a42.52,42.52,0,0,1-5.49,11.32A23.06,23.06,0,0,1,71.42,91.52Z"/><path class="cls-5" d="M78.15,62.28c0-1.6.69-2.58,2-2.67s2.22.92,2.31,2.53a7,7,0,0,1,0,1.12,2.09,2.09,0,0,1-2.18,1.95,2.06,2.06,0,0,1-2.06-1.94C78.16,62.94,78.16,62.61,78.15,62.28Z"/></svg>