<svg xmlns="http://www.w3.org/2000/svg" viewBox="0 0 555.3 145.94"><defs><style>.cls-1{fill:#053e81;}.cls-2{fill:#003f8a;}.cls-3{fill:#ee1e27;}.cls-4{fill:#1f438e;}</style></defs><title>text-logo-x</title><g id="Layer_2" data-name="Layer 2"><path class="cls-1" d="M97.56,38V64L79.9,38H66.36V84.94H80V59.18L97.56,84.94h13.66V38Z"/><path class="cls-1" d="M163.05,52.24a20.56,20.56,0,0,0-3.72-7.52,16.79,16.79,0,0,0-6.47-5A25.84,25.84,0,0,0,142.57,38H121V84.94h21.53a33.79,33.79,0,0,0,8.64-1.28,15.49,15.49,0,0,0,6.53-3.73A19.32,19.32,0,0,0,162.49,73c1.13-2.76,1.71-6.65,1.71-11.67A34.76,34.76,0,0,0,163.05,52.24ZM148.56,69.75a6.79,6.79,0,0,1-3,3.52c-1.29.68-3.44,1-6.46,1h-3.55V48.66h3.61c3.76,0,6.44.91,8.06,2.75s2.44,5.23,2.44,10.2C149.65,65.37,149.28,68.09,148.56,69.75Z"/><path class="cls-1" d="M212.25,43.52q-6.33-6.29-18-6.29-11.42,0-17.82,6.4T170,61.52q0,8.24,3.24,13.69a19.77,19.77,0,0,0,8.43,8,30.19,30.19,0,0,0,13.13,2.52,26.53,26.53,0,0,0,13-2.92,19.81,19.81,0,0,0,8-8.2q2.76-5.27,2.76-13.48Q218.59,49.82,212.25,43.52ZM201.54,71.85a10,10,0,0,1-14.42-.06q-2.64-3.11-2.63-10.21t2.65-10.27a8.8,8.8,0,0,1,7-3.1,9.13,9.13,0,0,1,7.25,3.06q2.67,3.06,2.66,9.67C204.09,66.19,203.25,69.83,201.54,71.85Z"/><path class="cls-1" d="M286.41,62.74a14.37,14.37,0,0,0-6-5.2q-4.11-2.1-13.62-4.15c-2.55-.53-4.18-1.1-4.86-1.73a2.63,2.63,0,0,1-1.06-2A3.31,3.31,0,0,1,262.17,47,5.85,5.85,0,0,1,266,46a6.39,6.39,0,0,1,7.1,6.05l13.66-.8q-.9-7.3-5.61-10.64t-13.71-3.35q-7.34,0-11.54,1.84a14,14,0,0,0-6.31,5.06A12.36,12.36,0,0,0,247.48,51a11.43,11.43,0,0,0,4.1,9.06q4.06,3.56,13.6,5.69Q271,67,272.6,68.43a4.28,4.28,0,0,1,1.6,3.26,4.37,4.37,0,0,1-1.69,3.39,7.08,7.08,0,0,1-4.77,1.45,7.65,7.65,0,0,1-6.4-2.85,10.47,10.47,0,0,1-1.82-5.12l-13.8.86a18.24,18.24,0,0,0,5.22,11.72q4.6,4.59,16.57,4.6a28.18,28.18,0,0,0,11.29-2,15.55,15.55,0,0,0,7-5.77,14.82,14.82,0,0,0,2.49-8.32A13.21,13.21,0,0,0,286.41,62.74Z"/><path class="cls-1" d="M326.1,38V66.65a8.16,8.16,0,0,1-2.13,6,9.18,9.18,0,0,1-11.78,0,8.15,8.15,0,0,1-2.13-6V38H295.6V66A27.88,27.88,0,0,0,297,73.91,14.78,14.78,0,0,0,300,79.32a16.89,16.89,0,0,0,5,4,19.45,19.45,0,0,0,6.77,1.9,63.8,63.8,0,0,0,7.47.48,29.35,29.35,0,0,0,10.14-1.57,15.94,15.94,0,0,0,5.8-3.88,17.05,17.05,0,0,0,4.07-6.46,23.59,23.59,0,0,0,1.3-7.85V38Z"/><path class="cls-1" d="M386,41.78Q382.05,38,374.18,38H350.09V84.94h14.56V67.53h7.94q8.76,0,13-4t4.27-11.11Q389.9,45.52,386,41.78Zm-11.89,14.8C373,57.55,371,58,368.2,58h-3.55V47.57h4.13c2.7,0,4.55.51,5.53,1.54a5.19,5.19,0,0,1,1.48,3.74A4.71,4.71,0,0,1,374.09,56.58Z"/><path class="cls-1" d="M433.3,41.78Q429.37,38,421.5,38H397.41V84.94H412V67.53h7.94c5.83,0,10.19-1.33,13-4s4.27-6.37,4.27-11.11S435.9,44.27,433.3,41.78Zm-11.89,14.8c-1.13,1-3.1,1.45-5.89,1.45H412V47.57h4.13q4.06,0,5.53,1.54a5.14,5.14,0,0,1,1.47,3.74A4.7,4.7,0,0,1,421.41,56.58Z"/><path class="cls-1" d="M459.29,73.39V38h-14.5V84.94h37.12V73.39Z"/><path class="cls-1" d="M513.73,38l-9.47,15.83L494.81,38h-16.1L497,65.3V84.94h14.53V65.3L527,42.07l2.71-4Z"/><polygon class="cls-2" points="545.9 14 536.98 27.28 535.83 29 36.36 29 33.08 38 72.03 38 72.02 38.03 66.57 53 27.62 53 21.43 70 60.38 70 54.92 85 0 85 5.46 70 11.66 53 17.12 38 20.4 29 25.86 14 545.9 14"/><polygon class="cls-3" points="555.3 0 551.08 6.28 549.92 8 28.05 8 30.96 0 555.3 0"/><path class="cls-4" d="M448,145.94h-8.42v-5.83H448c4,0,7.39-3.06,9.52-5.64a31.6,31.6,0,0,0,4-6.24l5.3,2.4C466.58,131.26,459.81,145.94,448,145.94Z"/><rect class="cls-4" y="103.93" width="15.77" height="31.36" rx="3.5"/><rect class="cls-4" x="17.93" y="98.02" width="29.98" height="40.56" rx="3.5"/><path class="cls-4" d="M146.08,140.11v5.83H53.54a3.35,3.35,0,0,1-3.35-3.35V107.87a3.35,3.35,0,0,1,4.56-3.12Z"/><path class="cls-4" d="M30.91,89h0a3.34,3.34,0,0,1,3.34,3.34v20.4a0,0,0,0,1,0,0H27.56a0,0,0,0,1,0,0V92.33A3.34,3.34,0,0,1,30.91,89Z"/><path class="cls-4" d="M40.68,89h0A3.34,3.34,0,0,1,44,92.33v20.4a0,0,0,0,1,0,0H37.33a0,0,0,0,1,0,0V92.33A3.34,3.34,0,0,1,40.68,89Z"/><rect class="cls-4" x="150.28" y="140.11" width="18.25" height="5.83"/><rect class="cls-4" x="172.65" y="140.11" width="18.25" height="5.83"/><rect class="cls-4" x="195.02" y="140.11" width="18.25" height="5.83"/><rect class="cls-4" x="217.39" y="140.11" width="18.25" height="5.83"/><rect class="cls-4" x="239.77" y="140.11" width="18.25" height="5.83"/><rect class="cls-4" x="262.14" y="140.11" width="18.25" height="5.83"/><rect class="cls-4" x="284.51" y="140.11" width="18.25" height="5.83"/><rect class="cls-4" x="306.88" y="140.11" width="18.25" height="5.83"/><rect class="cls-4" x="329.25" y="140.11" width="18.25" height="5.83"/><rect class="cls-4" x="351.62" y="140.11" width="18.25" height="5.83"/><rect class="cls-4" x="374" y="140.11" width="18.25" height="5.83"/><rect class="cls-4" x="396.37" y="140.11" width="18.25" height="5.83"/><rect class="cls-4" x="418.74" y="140.11" width="18.25" height="5.83"/></g></svg>